<svg preserveAspectRatio="none" width="100%" height="100%" overflow="visible" style="display: block;" viewBox="0 0 23.9947 21.9935" fill="none" xmlns="http://www.w3.org/2000/svg">
<g id="SVG" clip-path="url(#clip0_0_6)">
<path id="Vector" d="M23.4649 18.9765C23.4649 19.71 22.8536 20.2846 22.1609 20.2846H20.8568L20.8853 26.8125C20.8853 26.9226 20.8772 27.0325 20.865 27.1426V27.7986C20.865 28.6992 20.1355 29.4286 19.2349 29.4286H18.5829C18.538 29.4286 18.4932 29.4286 18.4484 29.4245C18.3913 29.4286 18.3343 29.4286 18.2772 29.4286H16.9528H15.9747C15.0741 29.4286 14.3447 28.6992 14.3447 27.7986V26.8206V24.2127C14.3447 23.4915 13.7619 22.9088 13.0406 22.9088H10.4325C9.71117 22.9088 9.12842 23.4915 9.12842 24.2127V26.8206V27.7986C9.12842 28.6992 8.39896 29.4286 7.49835 29.4286H6.5203H5.22032C5.15919 29.4286 5.09806 29.4245 5.03693 29.4204C4.98803 29.4245 4.93913 29.4286 4.89023 29.4286H4.2382C3.33758 29.4286 2.60812 28.6992 2.60812 27.7986V23.2348C2.60812 23.198 2.60812 23.1573 2.6122 23.1206V20.2846H1.30406C0.570526 20.2846 0 19.7141 0 18.9765C0 18.6098 0.122256 18.2838 0.407519 17.9985L10.8562 8.89118C11.1416 8.60593 11.4676 8.56519 11.7528 8.56519C12.0381 8.56519 12.3642 8.64668 12.6086 8.85043L23.0167 17.9985C23.3427 18.2838 23.5056 18.6098 23.4649 18.9765Z" fill="var(--fill-0, #FF8000)"/>
</g>
<defs>
<clipPath id="clip0_0_6">
<rect width="23.9947" height="21.9935" fill="white"/>
</clipPath>
</defs>
</svg>
