<svg preserveAspectRatio="none" width="100%" height="100%" overflow="visible" style="display: block;" viewBox="0 0 416 120.003" fill="none" xmlns="http://www.w3.org/2000/svg">
<g id="SVG" clip-path="url(#clip0_0_4)">
<path id="Vector" d="M19.6875 125.896C37.809 106.212 51.7575 95.4906 61.5328 93.7327C74.8858 91.3326 89.8167 108.311 103.378 106.592C117.758 104.77 131.037 81.7027 145.223 80.8582C158.949 80.0434 173.79 102.251 187.069 100.162C201.851 97.8365 213.924 70.1765 228.929 61.554C242.074 53.9983 257.005 47.7759 270.775 48.6944C284.902 49.6426 299.342 70.0876 312.619 67.9986C327.386 65.6727 339.697 39.2571 354.464 29.3902C363.317 23.4838 377.266 17.0491 396.31 10.0859" stroke="var(--stroke-0, #FF8000)" stroke-width="4.44444" stroke-miterlimit="2"/>
</g>
<defs>
<clipPath id="clip0_0_4">
<rect width="416" height="120.003" fill="white"/>
</clipPath>
</defs>
</svg>
