<svg width="750" height="171" viewBox="0 0 750 171" fill="none" xmlns="http://www.w3.org/2000/svg">
<path d="M134.148 132.086C126.883 132.086 120.736 130.548 115.707 127.474C110.677 124.4 106.811 120.162 104.111 114.758C101.503 109.354 100.199 103.065 100.199 95.8925C100.199 88.7197 101.548 82.4313 104.251 77.0273C107.045 71.5296 111.003 67.2914 116.126 64.3108C121.249 61.2365 127.442 59.6993 134.707 59.6993C140.854 59.6993 146.254 60.8632 150.912 63.1929C155.569 65.5225 159.155 68.7825 161.67 72.9748C164.278 77.1671 165.582 82.058 165.582 87.6477V88.9054H150.633V88.0669C150.633 82.9425 149.236 79.2172 146.442 76.8876C143.74 74.466 139.503 73.2543 133.729 73.2543C127.023 73.2543 122.225 75.1647 119.339 78.9837C116.545 82.7108 115.148 88.3005 115.148 95.7527C115.148 103.299 116.545 108.982 119.339 112.801C122.225 116.528 127.023 118.391 133.729 118.391C139.503 118.391 143.742 117.227 146.442 114.897C149.236 112.476 150.633 108.749 150.633 103.718V102.88H165.582V104.137C165.582 109.541 164.276 114.384 161.67 118.67C159.061 122.863 155.383 126.171 150.633 128.592C145.975 130.922 140.48 132.086 134.148 132.086ZM202.49 131.946C195.411 131.946 189.264 130.457 184.048 127.474C178.832 124.4 174.828 120.162 172.032 114.758C169.238 109.26 167.841 102.926 167.841 95.7527C167.841 88.5799 169.238 82.2916 172.032 76.8876C174.826 71.4836 178.833 67.2914 184.048 64.3108C189.264 61.2365 195.411 59.6993 202.49 59.6993C209.567 59.6993 215.622 61.2365 220.651 64.3108C225.773 67.2914 229.685 71.4836 232.387 76.8876C235.181 82.2916 236.578 88.5799 236.578 95.7527C236.578 102.926 235.181 109.262 232.387 114.758C229.685 120.162 225.773 124.4 220.651 127.474C215.622 130.455 209.567 131.946 202.49 131.946ZM202.49 118.531C209.754 118.531 214.83 116.714 217.718 113.081C220.604 109.354 222.048 103.578 222.048 95.7527C222.048 87.9272 220.604 82.1978 217.718 78.5645C214.83 74.9312 209.754 73.1145 202.49 73.1145C195.131 73.1145 190.008 74.9312 187.122 78.5645C184.234 82.1978 182.791 87.9272 182.791 95.7527C182.791 103.578 184.234 109.354 187.122 113.081C190.008 116.714 195.131 118.531 202.49 118.531ZM305.554 130.548H290.466V90.1631C290.466 84.0144 289.302 79.5905 286.973 76.8876C284.646 74.0927 280.267 72.6953 273.841 72.6953C269.743 72.6953 266.39 73.3021 263.782 74.512C261.175 75.6299 259.219 77.4925 257.914 80.1016C256.611 82.617 255.958 86.0646 255.958 90.4425H253.304L252.047 74.0927H255.4C256.425 71.5774 257.962 69.2477 260.01 67.1056C262.06 64.9635 264.668 63.1929 267.833 61.7955C271.094 60.398 274.958 59.6993 279.429 59.6993C285.484 59.6993 290.42 60.8632 294.238 63.1929C298.058 65.5225 300.898 68.7366 302.76 72.8351C304.624 76.9354 305.554 81.6388 305.554 86.949V130.548ZM255.958 130.548H240.87V61.0967H254.701V81.9183L255.958 82.617V130.548ZM344.596 131.946C337.517 131.946 331.37 130.457 326.155 127.474C320.94 124.4 316.935 120.162 314.14 114.758C311.346 109.26 309.949 102.926 309.949 95.7527C309.949 88.5799 311.346 82.2916 314.14 76.8876C316.935 71.4836 320.94 67.2914 326.155 64.3108C331.37 61.2365 337.517 59.6993 344.596 59.6993C351.675 59.6993 357.729 61.2365 362.758 64.3108C367.881 67.2914 371.793 71.4836 374.493 76.8876C377.287 82.2916 378.685 88.5799 378.685 95.7527C378.685 102.926 377.287 109.262 374.493 114.758C371.793 120.162 367.881 124.4 362.758 127.474C357.729 130.455 351.675 131.946 344.596 131.946ZM344.596 118.531C351.861 118.531 356.936 116.714 359.824 113.081C362.712 109.354 364.155 103.578 364.155 95.7527C364.155 87.9272 362.712 82.1978 359.824 78.5645C356.936 74.9312 351.861 73.1145 344.596 73.1145C337.238 73.1145 332.117 74.9312 329.229 78.5645C326.341 82.1978 324.898 87.9272 324.898 95.7527C324.898 103.578 326.341 109.354 329.229 113.081C332.117 116.714 337.238 118.531 344.596 118.531ZM494.464 130.548H479.376V90.1631C479.376 84.0144 478.21 79.5905 475.883 76.8876C473.648 74.0927 469.363 72.6953 463.03 72.6953C457.348 72.6953 453.111 74.0468 450.317 76.7478C447.615 79.357 446.265 83.8269 446.265 90.1631L443.611 90.4425L442.354 74.0927H444.589C445.707 71.6712 447.243 69.3875 449.199 67.2454C451.247 65.0095 453.855 63.1929 457.023 61.7955C460.188 60.398 464.054 59.6993 468.618 59.6993C474.672 59.6993 479.561 60.8632 483.287 63.1929C487.105 65.5225 489.9 68.7366 491.67 72.8351C493.532 76.9354 494.464 81.6388 494.464 86.949V130.548ZM398.067 130.548H382.979V61.0967H396.81V81.9183L398.067 82.617V130.548ZM446.265 130.548H431.177V90.1631C431.177 84.0144 430.012 79.5905 427.685 76.8876C425.449 74.0927 421.164 72.6953 414.832 72.6953C409.15 72.6953 404.912 74.0008 402.118 76.6081C399.416 79.2172 398.067 83.6871 398.067 90.0233L395.412 90.4425L394.155 74.0927H397.508C398.532 71.5774 400.023 69.2477 401.979 67.1056C404.026 64.9635 406.635 63.1929 409.802 61.7955C412.968 60.398 416.74 59.6993 421.118 59.6993C426.986 59.6993 431.736 60.8632 435.368 63.1929C439.093 65.5225 441.841 68.7366 443.611 72.8351C445.379 76.9354 446.265 81.6388 446.265 86.949V130.548ZM509.975 154.305C508.111 154.305 506.203 154.165 504.247 153.885C502.291 153.7 500.707 153.42 499.497 153.047V140.75H509.135C512.023 140.75 514.166 140.33 515.563 139.492C516.96 138.747 518.264 137.116 519.475 134.601L523.806 124.819L522.548 129.71L492.512 61.0967H509.135L523.107 94.7745L529.394 109.867H530.651L536.24 94.7745L548.953 61.0967H565.718L532.747 138.654C531.071 142.846 529.161 146.06 527.019 148.296C524.876 150.532 522.409 152.069 519.615 152.907C516.912 153.839 513.699 154.305 509.975 154.305ZM602.253 141.448H551.958V130.548H602.253V141.448ZM668.736 130.548H653.648V90.1631C653.648 84.0144 652.436 79.5905 650.015 76.8876C647.686 74.0927 643.355 72.6953 637.023 72.6953C630.968 72.6953 626.451 74.0468 623.471 76.7478C620.583 79.357 619.14 83.9685 619.14 90.5823H616.486L616.346 72.6953H619.699C620.817 70.5532 622.354 68.5031 624.309 66.5467C626.357 64.4965 628.92 62.8674 631.993 61.6557C635.159 60.3502 638.791 59.6993 642.89 59.6993C649.037 59.6993 653.973 60.911 657.699 63.3326C661.517 65.6623 664.311 68.8763 666.082 72.9748C667.85 77.0751 668.736 81.6848 668.736 86.8093V130.548ZM619.14 130.548H604.052V36.9214H619.14V130.548ZM703.297 131.946C693.517 131.946 686.113 128.686 681.083 122.164C676.054 115.55 673.539 106.746 673.539 95.7527C673.539 84.7591 676.1 76.0032 681.223 69.4813C686.438 62.9594 693.936 59.6993 703.716 59.6993C709.769 59.6993 714.753 60.8632 718.664 63.1929C722.67 65.4287 725.464 68.549 727.047 72.5556H729.841L729.142 89.6041H726.488C726.488 85.6913 725.743 82.5251 724.253 80.1016C722.762 77.5863 720.62 75.7237 717.826 74.512C715.032 73.2065 711.585 72.5556 707.488 72.5556C704.229 72.5556 701.387 72.9748 698.966 73.8133C696.545 74.5579 694.541 75.8634 692.958 77.726C691.468 79.5886 690.35 82.0102 689.605 84.9926C688.953 87.8794 688.628 91.4667 688.628 95.7527C688.628 100.037 688.953 103.718 689.605 106.792C690.35 109.773 691.468 112.149 692.958 113.919C694.541 115.69 696.497 116.994 698.826 117.832C701.247 118.67 704.135 119.09 707.488 119.09C711.585 119.09 715.032 118.483 717.826 117.273C720.62 115.968 722.762 114.059 724.253 111.544C725.743 109.028 726.488 105.862 726.488 102.041H729.142L729.841 119.788H726.069C724.578 122.956 721.878 125.797 717.966 128.313C714.148 130.734 709.258 131.946 703.297 131.946ZM741.576 154.724H726.488V79.4029L727.605 77.5863V61.0967H741.576V154.724Z" fill="white"/>
<path fill-rule="evenodd" clip-rule="evenodd" d="M46.6912 60.6775L55.7408 64.4266L45.8143 88.4016L69.7812 78.4725L73.5294 87.519L49.5625 97.4517L73.5294 107.384L69.7812 116.435L45.8143 106.505L55.7408 130.479L46.693 134.23L36.7647 110.249L26.8346 134.226L17.7868 130.475L27.7132 106.502L3.74632 116.431L0 107.383L23.9687 97.4517L0 87.5226L3.74816 78.4707L27.7169 88.3997L17.7886 64.4285L26.8364 60.6775L36.7647 84.6524L46.6912 60.6775Z" fill="#B474E6"/>
</svg>
