<svg preserveAspectRatio="none" width="100%" height="100%" overflow="visible" style="display: block;" viewBox="0 0 36 36" fill="none" xmlns="http://www.w3.org/2000/svg">
<g id="Img">
<path id="Vector" d="M24.75 18C24.75 19.5609 24.6656 21.0656 24.518 22.5H11.482C11.3273 21.0656 11.25 19.5609 11.25 18C11.25 16.4391 11.3344 14.9344 11.482 13.5H24.518C24.6727 14.9344 24.75 16.4391 24.75 18ZM26.775 13.5H35.4305C35.8031 14.9414 36 16.4461 36 18C36 19.5539 35.8031 21.0586 35.4305 22.5H26.775C26.9227 21.0516 27 19.5469 27 18C27 16.4531 26.9227 14.9484 26.775 13.5ZM34.6922 11.25H26.4867C25.7836 6.75703 24.3914 2.99531 22.5984 0.590625C28.1039 2.04609 32.5828 6.03984 34.6852 11.25H34.6922ZM24.2086 11.25H11.7914C12.2203 8.69062 12.8812 6.42656 13.6898 4.59141C14.4281 2.93203 15.2508 1.72969 16.0453 0.970313C16.8328 0.225 17.4867 0 18 0C18.5133 0 19.1672 0.225 19.9547 0.970313C20.7492 1.72969 21.5719 2.93203 22.3102 4.59141C23.1258 6.41953 23.7797 8.68359 24.2086 11.25ZM9.51328 11.25H1.30781C3.41719 6.03984 7.88906 2.04609 13.4016 0.590625C11.6086 2.99531 10.2164 6.75703 9.51328 11.25ZM0.569531 13.5H9.225C9.07734 14.9484 9 16.4531 9 18C9 19.5469 9.07734 21.0516 9.225 22.5H0.569531C0.196875 21.0586 0 19.5539 0 18C0 16.4461 0.196875 14.9414 0.569531 13.5ZM13.6898 31.4016C12.8742 29.5734 12.2203 27.3094 11.7914 24.75H24.2086C23.7797 27.3094 23.1187 29.5734 22.3102 31.4016C21.5719 33.0609 20.7492 34.2633 19.9547 35.0227C19.1672 35.775 18.5133 36 18 36C17.4867 36 16.8328 35.775 16.0453 35.0297C15.2508 34.2703 14.4281 33.068 13.6898 31.4086V31.4016ZM9.51328 24.75C10.2164 29.243 11.6086 33.0047 13.4016 35.4094C7.88906 33.9539 3.41719 29.9602 1.30781 24.75H9.51328ZM34.6922 24.75C32.5828 29.9602 28.1109 33.9539 22.6055 35.4094C24.3984 33.0047 25.7836 29.243 26.4937 24.75H34.6922Z" fill="var(--fill-0, white)"/>
</g>
</svg>
