<svg width="144" height="140" viewBox="0 0 144 140" fill="none" xmlns="http://www.w3.org/2000/svg">
<g clip-path="url(#clip0_94_4659)">
<mask id="mask0_94_4659" style="mask-type:luminance" maskUnits="userSpaceOnUse" x="-1" y="-5" width="150" height="149">
<path d="M148.095 -4.6438H-0.0664062V143.69H148.095V-4.6438Z" fill="white"/>
</mask>
<g mask="url(#mask0_94_4659)">
<path d="M72.3994 131.109L54.9263 123.525L44.0901 96.8845C42.9073 103.079 41.7253 109.268 40.5292 115.531L23.2812 123.635C17.3864 121.254 11.3534 118.775 5.23047 115.431C10.955 82.7066 16.6539 50.1277 22.3273 17.6941C27.9063 14.5312 33.586 12.4375 39.0692 9.91162L56.6343 17.7866C61.6935 33.7883 66.7491 49.7783 71.8013 65.7566L86.9667 17.5945L103.901 10.0883C109.829 11.947 115.381 14.9433 121.579 17.855C126.995 50.2294 132.453 82.8534 137.953 115.727C137.481 116.073 136.986 116.386 136.471 116.663C130.942 119.135 125.401 121.583 119.763 124.084L103.831 117.505C101.556 111.41 101.794 104.899 99.3357 98.2012C97.7005 102.18 96.2897 105.601 94.8879 109.026C93.3064 112.89 91.6954 116.744 90.1726 120.632C89.5433 122.238 88.5561 123.465 86.9754 124.085C82.0786 126.01 77.5468 128.696 72.3994 131.109ZM24.2389 21.2037L8.4738 114.011C12.6775 116.281 17.023 118.278 21.4833 119.989C21.8163 119.187 22.1908 118.602 22.3007 117.972C23.7211 109.893 25.0891 101.805 26.5004 93.7237C28.0507 84.8425 29.6351 75.9666 31.1925 67.0862C31.4231 65.772 31.3935 64.305 33.9809 64.15C41.5289 83.1916 49.1488 102.419 56.6863 121.436C61.6951 123.599 66.0759 126.204 71.2528 127.69L102.62 26.7233L89.2128 20.627C87.5131 23.5354 86.9509 26.4462 86.0844 29.2375C80.8546 46.085 75.6326 62.9347 70.4184 79.7866C68.5455 85.8316 66.7272 91.8945 64.7549 97.9066C64.347 99.1495 64.3387 101.055 61.497 100.932C53.4126 76.4141 46.3371 51.3433 38.2281 26.7212C33.5985 24.8795 29.5968 22.312 24.2389 21.2037ZM134.952 114.255C129.72 82.9904 124.556 52.1245 119.345 20.9783C114.175 22.5733 109.889 24.7345 105.419 26.77C95.1277 59.9808 84.8654 93.1 74.4861 126.596C78.5698 125.921 81.4235 123.769 84.6481 122.563C86.4748 121.88 87.4153 120.657 88.085 118.917C89.9707 114.015 91.9759 109.16 93.9274 104.285C98.7801 92.1595 103.589 80.0183 108.535 67.9337C109.073 66.6208 109.171 64.6837 111.771 64.0758C115.002 82.8166 118.204 101.388 121.476 120.367C126.072 118.568 130.57 116.528 134.952 114.255ZM41.2413 26.9166L62.6382 95.2083C64.7453 88.7433 66.6943 82.2229 68.9413 75.8066C70.2552 72.0566 70.0542 68.5529 68.8327 64.7987C65.0421 53.1462 61.5698 41.3895 57.7942 29.7316C56.8566 26.8362 56.2818 23.7266 54.379 21.0804C49.9129 22.4758 45.8772 24.5441 41.2413 26.9166ZM110.094 70.5991L109.967 70.5854C107.639 76.4395 105.396 82.3283 102.999 88.1541C101.878 90.8783 101.792 93.6175 102.269 96.4516C102.561 98.1704 102.731 99.91 103.057 101.622C103.855 105.81 104.226 110.088 105.396 114.217C109.486 116.552 113.83 118.41 118.342 119.757C115.513 102.893 112.806 86.7579 110.094 70.5991ZM37.8989 114.198C39.2036 106.627 40.7481 99.375 41.4947 91.9825C41.5392 91.5376 41.4837 91.0885 41.3324 90.6679C39.0205 84.2033 36.6712 77.7566 33.4432 70.5887C30.5728 87.375 27.8576 103.25 24.998 119.974L37.8989 114.198ZM103.853 12.4454C99.8959 14.7741 95.6962 15.7975 92.0275 18.477C96.0891 20.9258 100.193 22.5029 104.263 24.3875C108.036 22.4187 112.269 21.4466 116.041 18.5241C112.097 15.8983 107.847 14.6566 103.853 12.4454ZM51.3284 18.5883C47.4545 15.77 43.1803 14.6212 39.433 12.68C35.3194 14.6933 31.1463 15.8333 27.1459 18.5195C31.2178 20.7628 35.4419 22.717 39.7871 24.3679C43.4912 22.2191 47.6214 21.2566 51.3284 18.5883Z" fill="white"/>
<path d="M24.2387 21.2036C29.5967 22.312 33.5983 24.8795 38.2259 26.7211C46.3348 51.3432 53.4104 76.414 61.4948 100.932C64.3369 101.054 64.3448 99.1494 64.7527 97.9065C66.725 91.8944 68.5433 85.8315 70.4161 79.7865C75.6373 62.9365 80.86 46.0868 86.0842 29.2374C86.9507 26.4457 87.513 23.5353 89.2127 20.627L102.62 26.7232L71.2531 127.689C66.0749 126.204 61.6941 123.599 56.6866 121.436C49.1491 102.419 41.5291 83.1928 33.9812 64.1499C32.3202 61.8224 31.4242 65.7719 31.1928 67.0861C29.6354 75.9665 28.051 84.8424 26.5007 93.7236C25.0898 101.804 23.7222 109.893 22.3005 117.972C22.1898 118.602 21.8165 119.187 21.4832 119.989C17.0228 118.278 12.6773 116.281 8.47363 114.011C13.7201 83.1249 18.9565 52.2999 24.2387 21.2036Z" fill="black"/>
<path d="M134.952 114.255C130.57 116.528 126.073 118.568 121.477 120.367C118.205 101.389 115.003 82.8174 111.772 64.0758C109.172 64.6841 109.074 66.6208 108.537 67.9337C103.588 80.017 98.7796 92.1604 93.9286 104.285C91.9771 109.16 89.9719 114.015 88.0862 118.917C87.4165 120.657 86.4759 121.88 84.6493 122.563C81.4247 123.769 78.5709 125.921 74.4873 126.596C84.8665 93.0999 95.1301 59.9808 105.42 26.7699C109.89 24.7337 114.176 22.5724 119.346 20.9783C124.556 52.1249 129.72 82.9904 134.952 114.255Z" fill="black"/>
<path d="M41.2412 26.9166C45.8771 24.5445 49.9128 22.4762 54.3789 21.0833C56.2817 23.7295 56.8565 26.8391 57.7941 29.7345C61.5698 41.3924 65.042 53.1491 68.8326 64.8016C70.0541 68.5558 70.2551 72.0587 68.9412 75.8095C66.6938 82.2262 64.7453 88.7462 62.6381 95.2112L41.2412 26.9166Z" fill="black"/>
<path d="M110.35 72.125C112.976 87.7742 115.602 103.424 118.341 119.757C113.829 118.41 109.485 116.552 105.395 114.218C104.225 110.088 103.855 105.81 103.056 101.622C102.729 99.9109 102.558 98.1705 102.268 96.4517C101.79 93.6184 101.877 90.8784 102.998 88.1542C105.187 82.8346 107.247 77.4621 109.361 72.1125L110.35 72.125Z" fill="black"/>
<path d="M37.8988 114.198L24.9971 119.974C27.8575 103.25 30.5727 87.3749 33.4431 70.5886C36.6573 77.722 38.9963 84.1415 41.299 90.5749C41.4718 91.0823 41.5325 91.6212 41.4772 92.1545C40.7239 99.4874 39.1931 106.686 37.8988 114.198Z" fill="black"/>
<path d="M103.854 12.4453C107.849 14.6566 112.097 15.8982 116.042 18.5241C112.271 21.4466 108.038 22.4186 104.264 24.3874C100.193 22.5028 96.0882 20.9257 92.0283 18.477C95.6974 15.7974 99.8963 14.7741 103.854 12.4453Z" fill="black"/>
<path d="M51.3279 18.5883C47.621 21.2549 43.4903 22.2191 39.7846 24.3678C35.4401 22.7169 31.2167 20.7627 27.1455 18.5195C31.1459 15.8333 35.319 14.6933 39.4325 12.6799C43.1799 14.6212 47.4541 15.7699 51.3279 18.5883Z" fill="black"/>
</g>
</g>
<defs>
<clipPath id="clip0_94_4659">
<rect width="144" height="140" fill="white"/>
</clipPath>
</defs>
</svg>
