<svg preserveAspectRatio="none" width="100%" height="100%" overflow="visible" style="display: block;" viewBox="0 0 24 24" fill="none" xmlns="http://www.w3.org/2000/svg">
<g id="SVG" clip-path="url(#clip0_0_6)">
<path id="Vector" d="M11.8496 0C12.0653 0 12.2809 0.046875 12.4778 0.135937L21.3043 3.88126C22.3356 4.31719 23.1043 5.33437 23.0996 6.5625C23.0762 11.2125 21.1636 19.7203 13.0872 23.5876C12.3043 23.9626 11.3949 23.9626 10.6121 23.5876C2.53557 19.7203 0.623068 11.2125 0.599631 6.5625C0.594943 5.33437 1.36369 4.31719 2.39494 3.88126L11.2262 0.135937C11.4184 0.046875 11.634 0 11.8496 0ZM11.8496 3.13126V20.85C18.3183 17.7187 20.0575 10.7859 20.0996 6.62813L11.8496 3.13126Z" fill="var(--fill-0, #FF8000)"/>
</g>
<defs>
<clipPath id="clip0_0_6">
<rect width="24" height="24" fill="white"/>
</clipPath>
</defs>
</svg>
