<svg preserveAspectRatio="none" width="100%" height="100%" overflow="visible" style="display: block;" viewBox="0 0 24 24" fill="none" xmlns="http://www.w3.org/2000/svg">
<g id="SVG">
<path id="Vector" d="M13.2353 1.76471C13.2353 0.788603 12.4467 0 11.4706 0C10.4945 0 9.70588 0.788603 9.70588 1.76471V9.70588H1.76471C0.788603 9.70588 0 10.4945 0 11.4706C0 12.4467 0.788603 13.2353 1.76471 13.2353H9.70588V21.1765C9.70588 22.1526 10.4945 22.9412 11.4706 22.9412C12.4467 22.9412 13.2353 22.1526 13.2353 21.1765V13.2353H21.1765C22.1526 13.2353 22.9412 12.4467 22.9412 11.4706C22.9412 10.4945 22.1526 9.70588 21.1765 9.70588H13.2353V1.76471Z" fill="var(--fill-0, #FF8000)"/>
</g>
</svg>
