<svg preserveAspectRatio="none" width="100%" height="100%" overflow="visible" style="display: block;" viewBox="0 0 27.0035 24" fill="none" xmlns="http://www.w3.org/2000/svg">
<g id="Img">
<path id="Vector" d="M13.5 1.5C9.7125 1.5 6.67969 3.225 4.47188 5.27812C2.27813 7.3125 0.810938 9.75 0.117187 11.4234C-0.0375 11.7937 -0.0375 12.2062 0.117187 12.5766C0.810938 14.25 2.27813 16.6875 4.47188 18.7219C6.67969 20.775 9.7125 22.5 13.5 22.5C17.2875 22.5 20.3203 20.775 22.5281 18.7219C24.7219 16.6828 26.1891 14.25 26.8875 12.5766C27.0422 12.2062 27.0422 11.7937 26.8875 11.4234C26.1891 9.75 24.7219 7.3125 22.5281 5.27812C20.3203 3.225 17.2875 1.5 13.5 1.5ZM6.75 12C6.75 10.2098 7.46116 8.4929 8.72703 7.22703C9.9929 5.96116 11.7098 5.25 13.5 5.25C15.2902 5.25 17.0071 5.96116 18.273 7.22703C19.5388 8.4929 20.25 10.2098 20.25 12C20.25 13.7902 19.5388 15.5071 18.273 16.773C17.0071 18.0388 15.2902 18.75 13.5 18.75C11.7098 18.75 9.9929 18.0388 8.72703 16.773C7.46116 15.5071 6.75 13.7902 6.75 12ZM13.5 9C13.5 10.6547 12.1547 12 10.5 12C10.1672 12 9.84844 11.9437 9.54844 11.8453C9.29063 11.7609 8.99063 11.9203 9 12.1922C9.01406 12.5156 9.06094 12.8391 9.15 13.1625C9.79219 15.5625 12.2625 16.9875 14.6625 16.3453C17.0625 15.7031 18.4875 13.2328 17.8453 10.8328C17.325 8.8875 15.6047 7.57969 13.6922 7.5C13.4203 7.49062 13.2609 7.78594 13.3453 8.04844C13.4438 8.34844 13.5 8.66719 13.5 9Z" fill="var(--fill-0, #FF8000)"/>
</g>
</svg>
