<svg preserveAspectRatio="none" width="100%" height="100%" overflow="visible" style="display: block;" viewBox="0 0 24 24" fill="none" xmlns="http://www.w3.org/2000/svg">
<g id="SVG" clip-path="url(#clip0_0_10)">
<path id="Vector" d="M9 4.39219C9 2.78906 10.3594 0 12 0C13.6874 0 15 2.78906 15 4.39219V7.5L23.3344 13.0547C23.7516 13.3313 24 13.8 24 14.3016V16.9594C24 17.4703 23.4984 17.8313 23.011 17.6719L15 15V18.75L17.7 20.775C17.8876 20.9156 18 21.1406 18 21.375V23.3437C18 23.7094 17.7047 24 17.3437 24C17.2828 24 17.2219 23.9906 17.161 23.9766L12 22.5L6.83906 23.9766C6.77813 23.9953 6.71719 24 6.65626 24C6.29063 24 6 23.7047 6 23.3437V21.375C6 21.1406 6.1125 20.9156 6.3 20.775L9 18.75V15L0.989063 17.6719C0.501563 17.8313 0 17.4703 0 16.9594V14.3016C0 13.8 0.248437 13.3313 0.665624 13.0547L9 7.5V4.39219Z" fill="var(--fill-0, #FF8000)"/>
</g>
<defs>
<clipPath id="clip0_0_10">
<rect width="24" height="24" fill="white"/>
</clipPath>
</defs>
</svg>
