<svg preserveAspectRatio="none" width="100%" height="100%" overflow="visible" style="display: block;" viewBox="0 0 24 24" fill="none" xmlns="http://www.w3.org/2000/svg">
<g id="SVG" clip-path="url(#clip0_0_6)">
<path id="Vector" d="M3 3C3 2.17031 2.32969 1.5 1.5 1.5C0.670314 1.5 -4.76837e-07 2.17031 -4.76837e-07 3V18.75C-4.76837e-07 20.8219 1.67812 22.5 3.75 22.5H22.5C23.3297 22.5 24 21.8297 24 21C24 20.1703 23.3297 19.5 22.5 19.5H3.75C3.3375 19.5 3 19.1625 3 18.75V3ZM22.0594 7.05938C22.6453 6.47344 22.6453 5.52188 22.0594 4.93594C21.4735 4.35 20.5219 4.35 19.936 4.93594L15 9.87654L12.3094 7.18594C11.7235 6.6 10.7719 6.6 10.186 7.18594L4.93594 12.436C4.35 13.0219 4.35 13.9735 4.93594 14.5594C5.52188 15.1453 6.47346 15.1453 7.05936 14.5594L11.25 10.3735L13.9406 13.064C14.5265 13.65 15.4781 13.65 16.064 13.064L22.064 7.06406L22.0594 7.05938Z" fill="var(--fill-0, #34D399)"/>
</g>
<defs>
<clipPath id="clip0_0_6">
<rect width="24" height="24" fill="white"/>
</clipPath>
</defs>
</svg>
