<svg preserveAspectRatio="none" width="100%" height="100%" overflow="visible" style="display: block;" viewBox="0 0 28 28" fill="none" xmlns="http://www.w3.org/2000/svg">
<g id="SVG" clip-path="url(#clip0_0_4)">
<path id="Vector" d="M3.5 3.5C3.5 2.53203 2.71797 1.75 1.75 1.75C0.782033 1.75 2.38419e-07 2.53203 2.38419e-07 3.5V21.875C2.38419e-07 24.2922 1.95781 26.25 4.375 26.25H26.25C27.218 26.25 28 25.468 28 24.5C28 23.532 27.218 22.75 26.25 22.75H4.375C3.89375 22.75 3.5 22.3562 3.5 21.875V3.5ZM25.7359 8.23594C26.4195 7.55234 26.4195 6.44219 25.7359 5.75859C25.0524 5.075 23.9422 5.075 23.2586 5.75859L17.5 11.5226L14.3609 8.38359C13.6774 7.7 12.5672 7.7 11.8836 8.38359L5.75859 14.5086C5.075 15.1922 5.075 16.3024 5.75859 16.9859C6.44219 17.6695 7.55237 17.6695 8.23592 16.9859L13.125 12.1024L16.2641 15.2414C16.9476 15.925 18.0578 15.925 18.7414 15.2414L25.7414 8.24141L25.7359 8.23594Z" fill="var(--fill-0, #FF8000)"/>
</g>
<defs>
<clipPath id="clip0_0_4">
<rect width="28" height="28" fill="white"/>
</clipPath>
</defs>
</svg>
