<svg preserveAspectRatio="none" width="100%" height="100%" overflow="visible" style="display: block;" viewBox="0 0 28 28" fill="none" xmlns="http://www.w3.org/2000/svg">
<g id="SVG" clip-path="url(#clip0_0_8)">
<path id="Vector" d="M-1.15484e-07 18.3325C1.34723 16.8621 2.38423 16.0612 3.11096 15.9299C4.10368 15.7505 5.21371 17.0189 6.22193 16.8905C7.29104 16.7544 8.27817 15.0312 9.33289 14.9681C10.3533 14.9073 11.4567 16.5662 12.4439 16.4102C13.5428 16.2364 14.4404 14.1702 15.5559 13.5261C16.5332 12.9616 17.6432 12.4968 18.6669 12.5654C19.7172 12.6363 20.7907 14.1635 21.7778 14.0075C22.8757 13.8337 23.7909 11.8605 24.8888 11.1234C25.547 10.6822 26.584 10.2015 27.9998 9.68132" stroke="var(--stroke-0, #FF8000)" stroke-width="0.332016" stroke-miterlimit="2"/>
</g>
<defs>
<clipPath id="clip0_0_8">
<rect width="28" height="28" fill="white"/>
</clipPath>
</defs>
</svg>
