<svg preserveAspectRatio="none" width="100%" height="100%" overflow="visible" style="display: block;" viewBox="0 0 16 16" fill="none" xmlns="http://www.w3.org/2000/svg">
<g id="SVG" clip-path="url(#clip0_0_6)">
<path id="Vector" d="M7.86364 -2.38419e-07C8.00742 -2.38419e-07 8.15113 0.0312498 8.2824 0.0906245L14.1668 2.58751C14.8543 2.87813 15.3668 3.55625 15.3636 4.375C15.3481 7.47498 14.073 13.1469 8.68865 15.725C8.16676 15.9751 7.56052 15.9751 7.03865 15.725C1.65428 13.1469 0.379275 7.47498 0.36365 4.375C0.360525 3.55625 0.873025 2.87813 1.56052 2.58751L7.44803 0.0906245C7.57615 0.0312498 7.71993 -2.38419e-07 7.86364 -2.38419e-07ZM7.86364 2.08751V13.9C12.1761 11.8125 13.3356 7.19063 13.3636 4.41875L7.86364 2.08751Z" fill="var(--fill-0, #FF8000)"/>
</g>
<defs>
<clipPath id="clip0_0_6">
<rect width="16" height="16" fill="white"/>
</clipPath>
</defs>
</svg>
