<svg preserveAspectRatio="none" width="100%" height="100%" overflow="visible" style="display: block;" viewBox="0 0 16 14" fill="none" xmlns="http://www.w3.org/2000/svg">
<g id="SVG" clip-path="url(#clip0_0_12)">
<path id="Vector" d="M2 1C2 0.446876 1.55313 0 1 0C0.446876 0 0 0.446876 0 1V11.5C0 12.8813 1.11875 14 2.5 14H15C15.5531 14 16 13.5531 16 13C16 12.4469 15.5531 12 15 12H2.5C2.225 12 2 11.775 2 11.5V1ZM14.7063 3.70625C15.0969 3.31563 15.0969 2.68125 14.7063 2.29063C14.3157 1.9 13.6813 1.9 13.2907 2.29063L10 5.58436L8.20627 3.79063C7.81567 3.4 7.18127 3.4 6.79067 3.79063L3.29063 7.29067C2.9 7.68127 2.9 8.31567 3.29063 8.70627C3.68125 9.09687 4.31564 9.09687 4.70624 8.70627L7.5 5.91564L9.29373 7.70933C9.68433 8.1 10.3187 8.1 10.7093 7.70933L14.7093 3.70937L14.7063 3.70625Z" fill="var(--fill-0, #34D399)"/>
</g>
<defs>
<clipPath id="clip0_0_12">
<rect width="16" height="14" fill="white"/>
</clipPath>
</defs>
</svg>
