<svg preserveAspectRatio="none" width="100%" height="100%" overflow="visible" style="display: block;" viewBox="0 0 16 16" fill="none" xmlns="http://www.w3.org/2000/svg">
<g id="SVG" clip-path="url(#clip0_0_10)">
<path id="Vector" d="M5.61035 0C6.55253 0 7.31785 0.765113 7.31785 1.70703V13.9001C7.31785 14.8419 6.55253 15.6071 5.61035 15.6071C4.72917 15.6071 4.00349 14.9395 3.912 14.0799C3.75345 14.1226 3.58575 14.1439 3.41499 14.1439C2.33866 14.1439 1.46357 13.269 1.46357 12.193C1.46357 11.9674 1.50321 11.748 1.57334 11.5469C0.652509 11.1993 0 10.3092 0 9.26671C0 8.29431 0.570183 7.45299 1.39649 7.06281C1.13122 6.73056 0.975714 6.3099 0.975714 5.85266C0.975714 4.91685 1.63432 4.13649 2.51247 3.94445C2.46368 3.77679 2.43928 3.59695 2.43928 3.41405C2.43928 2.50262 3.06741 1.73446 3.912 1.52109C4.00349 0.667569 4.72917 0 5.61035 0ZM10.0011 0C10.8823 0 11.6049 0.667569 11.6994 1.52109C12.5471 1.73446 13.1721 2.49957 13.1721 3.41405C13.1721 3.59695 13.1478 3.77679 13.099 3.94445C13.9771 4.13344 14.6357 4.91685 14.6357 5.85266C14.6357 6.3099 14.4802 6.73056 14.2149 7.06281C15.0413 7.45299 15.6114 8.29431 15.6114 9.26671C15.6114 10.3092 14.959 11.1993 14.0381 11.5469C14.1082 11.748 14.1479 11.9674 14.1479 12.193C14.1479 13.269 13.2728 14.1439 12.1965 14.1439C12.0257 14.1439 11.8579 14.1226 11.6994 14.0799C11.608 14.9395 10.8823 15.6071 10.0011 15.6071C9.05893 15.6071 8.29357 14.8419 8.29357 13.9001V1.70703C8.29357 0.765113 9.05893 0 10.0011 0Z" fill="var(--fill-0, #FF8000)"/>
</g>
<defs>
<clipPath id="clip0_0_10">
<rect width="16" height="16" fill="white"/>
</clipPath>
</defs>
</svg>
