<svg preserveAspectRatio="none" width="100%" height="100%" overflow="visible" style="display: block;" viewBox="0 0 20 20" fill="none" xmlns="http://www.w3.org/2000/svg">
<g id="SVG" clip-path="url(#clip0_0_10)">
<path id="Vector" d="M10 0C10.1797 0 10.3594 0.0390625 10.5234 0.113281L17.8789 3.23438C18.7383 3.59766 19.3789 4.44531 19.375 5.46875C19.3555 9.34375 17.7617 16.4336 11.0313 19.6563C10.3789 19.9688 9.62113 19.9688 8.96875 19.6563C2.2383 16.4336 0.644549 9.34375 0.625018 5.46875C0.621112 4.44531 1.26174 3.59766 2.12111 3.23438L9.4805 0.113281C9.64063 0.0390625 9.82031 0 10 0ZM10 2.60938V17.375C15.3906 14.7656 16.8399 8.98825 16.875 5.52344L10 2.60938Z" fill="var(--fill-0, #FF8000)"/>
</g>
<defs>
<clipPath id="clip0_0_10">
<rect width="20" height="20" fill="white"/>
</clipPath>
</defs>
</svg>
