<svg preserveAspectRatio="none" width="100%" height="100%" overflow="visible" style="display: block;" viewBox="0 0 20 20" fill="none" xmlns="http://www.w3.org/2000/svg">
<g id="SVG" clip-path="url(#clip0_0_18)">
<path id="Vector" d="M9.58788 -2.98023e-07C9.75912 -2.98023e-07 9.93035 0.0372204 10.0867 0.107939L17.0963 3.08188C17.9153 3.42803 18.5257 4.23571 18.522 5.21089C18.5035 8.90319 16.9847 15.6588 10.5707 18.7295C9.94896 19.0272 9.22679 19.0272 8.60511 18.7295C2.19109 15.6588 0.672275 8.90319 0.653663 5.21089C0.64994 4.23571 1.26044 3.42803 2.07941 3.08188L9.09277 0.107939C9.24539 0.0372204 9.41664 -2.98023e-07 9.58788 -2.98023e-07ZM9.58788 2.48635V16.5557C14.7251 14.0693 16.1061 8.56448 16.1396 5.263L9.58788 2.48635Z" fill="var(--fill-0, #FF8000)"/>
</g>
<defs>
<clipPath id="clip0_0_18">
<rect width="20" height="20" fill="white"/>
</clipPath>
</defs>
</svg>
