<svg preserveAspectRatio="none" width="100%" height="100%" overflow="visible" style="display: block;" viewBox="0 0 20 20" fill="none" xmlns="http://www.w3.org/2000/svg">
<g id="SVG" clip-path="url(#clip0_0_4)">
<path id="Vector" d="M2.5 10L3.61328 1.09375C3.69141 0.46875 4.22266 0 4.85547 0H11.4414C12.0273 0 12.5 0.472656 12.5 1.05859C12.5 1.18359 12.4766 1.3125 12.4336 1.42969L10.625 6.25H16.0664C16.8555 6.25 17.5 6.89063 17.5 7.68356C17.5 7.97269 17.4141 8.25394 17.25 8.49219L9.74219 19.4687C9.51175 19.8047 9.13281 20.0039 8.73047 20.0039H8.61719C8.00391 20.0039 7.50391 19.5039 7.50391 18.8906C7.50391 18.8008 7.51562 18.7109 7.53906 18.6211L9.375 11.25H3.75C3.05859 11.25 2.5 10.6914 2.5 10Z" fill="var(--fill-0, #34D399)"/>
</g>
<defs>
<clipPath id="clip0_0_4">
<rect width="20" height="20" fill="white"/>
</clipPath>
</defs>
</svg>
