<svg preserveAspectRatio="none" width="100%" height="100%" overflow="visible" style="display: block;" viewBox="0 0 20 20" fill="none" xmlns="http://www.w3.org/2000/svg">
<g id="SVG">
<path id="Vector" d="M2.5 2.5C2.5 1.80859 1.94141 1.25 1.25 1.25C0.558594 1.25 0 1.80859 0 2.5V15.625C0 17.3516 1.39844 18.75 3.125 18.75H18.75C19.4414 18.75 20 18.1914 20 17.5C20 16.8086 19.4414 16.25 18.75 16.25H3.125C2.78125 16.25 2.5 15.9688 2.5 15.625V2.5ZM18.3829 5.88281C18.8711 5.39454 18.8711 4.60156 18.3829 4.11329C17.8945 3.625 17.1015 3.625 16.6132 4.11329L12.5 8.23046L10.2578 5.98829C9.76954 5.5 8.97656 5.5 8.48829 5.98829L4.11329 10.3633C3.625 10.8516 3.625 11.6445 4.11329 12.1328C4.60156 12.6211 5.39454 12.6211 5.88281 12.1328L9.375 8.64454L11.6172 10.8867C12.1055 11.375 12.8985 11.375 13.3868 10.8867L18.3868 5.88671L18.3829 5.88281Z" fill="var(--fill-0, #FF8000)"/>
</g>
</svg>
