<svg preserveAspectRatio="none" width="100%" height="100%" overflow="visible" style="display: block;" viewBox="0 0 20 20" fill="none" xmlns="http://www.w3.org/2000/svg">
<g id="SVG" clip-path="url(#clip0_0_16)">
<path id="Vector" d="M7.01294 0C8.19066 0 9.14731 0.956391 9.14731 2.13379V17.3751C9.14731 18.5524 8.19066 19.5089 7.01294 19.5089C5.91146 19.5089 5.00436 18.6744 4.89 17.5999C4.69181 17.6533 4.48219 17.6799 4.26874 17.6799C2.92333 17.6799 1.82946 16.5863 1.82946 15.2413C1.82946 14.9593 1.87901 14.685 1.96667 14.4336C0.815636 13.9992 0 12.8865 0 11.5834C0 10.3679 0.712729 9.31624 1.74561 8.82851C1.41402 8.4132 1.21964 7.88737 1.21964 7.31583C1.21964 6.14606 2.0429 5.17061 3.14059 4.93056C3.0796 4.72099 3.0491 4.49619 3.0491 4.26756C3.0491 3.12827 3.83426 2.16807 4.89 1.90136C5.00436 0.834461 5.91146 0 7.01294 0ZM12.5013 0C13.6028 0 14.5061 0.834461 14.6243 1.90136C15.6839 2.16807 16.4651 3.12446 16.4651 4.26756C16.4651 4.49619 16.4347 4.72099 16.3737 4.93056C17.4714 5.1668 18.2946 6.14606 18.2946 7.31583C18.2946 7.88737 18.1003 8.4132 17.7686 8.82851C18.8016 9.31624 19.5143 10.3679 19.5143 11.5834C19.5143 12.8865 18.6987 13.9992 17.5476 14.4336C17.6353 14.685 17.6849 14.9593 17.6849 15.2413C17.6849 16.5863 16.591 17.6799 15.2456 17.6799C15.0321 17.6799 14.8224 17.6533 14.6243 17.5999C14.51 18.6744 13.6028 19.5089 12.5013 19.5089C11.3237 19.5089 10.367 18.5524 10.367 17.3751V2.13379C10.367 0.956391 11.3237 0 12.5013 0Z" fill="var(--fill-0, #FF8000)"/>
</g>
<defs>
<clipPath id="clip0_0_16">
<rect width="20" height="20" fill="white"/>
</clipPath>
</defs>
</svg>
