<svg preserveAspectRatio="none" width="100%" height="100%" overflow="visible" style="display: block;" viewBox="0 0 20 20" fill="none" xmlns="http://www.w3.org/2000/svg">
<g id="SVG">
<path id="Vector" d="M2.5 2.5C2.5 1.8086 1.9414 1.25 1.25 1.25C0.558595 1.25 0 1.8086 0 2.5V15.625C0 17.3515 1.39843 18.75 3.125 18.75H18.75C19.4414 18.75 20 18.1914 20 17.5C20 16.8086 19.4414 16.25 18.75 16.25H3.125C2.78125 16.25 2.5 15.9688 2.5 15.625V2.5ZM18.3828 5.88281C18.8711 5.39453 18.8711 4.60157 18.3828 4.11328C17.8945 3.625 17.1016 3.625 16.6133 4.11328L12.5 8.23045L10.2578 5.98828C9.76955 5.5 8.97655 5.5 8.4883 5.98828L4.11328 10.3633C3.625 10.8516 3.625 11.6446 4.11328 12.1328C4.60156 12.6211 5.39455 12.6211 5.8828 12.1328L9.375 8.64455L11.6172 10.8867C12.1054 11.375 12.8984 11.375 13.3867 10.8867L18.3867 5.88672L18.3828 5.88281Z" fill="var(--fill-0, white)" fill-opacity="0.2"/>
</g>
</svg>
