<svg preserveAspectRatio="none" width="100%" height="100%" overflow="visible" style="display: block;" viewBox="0 0 25.0021 20" fill="none" xmlns="http://www.w3.org/2000/svg">
<g id="Img">
<path id="Vector" d="M4.56846 6.19141C4.27549 6.53906 3.80674 6.8125 3.33799 6.77344C3.2794 6.30469 3.50987 5.80469 3.7794 5.5C4.07237 5.14453 4.58409 4.89062 5.00206 4.87109C5.04893 5.35547 4.85752 5.83594 4.56846 6.19141ZM4.99424 6.86328C4.31456 6.82422 3.73252 7.25 3.41221 7.25C3.08409 7.25 2.5919 6.88281 2.05284 6.89453C1.35362 6.90625 0.705181 7.30078 0.349712 7.92969C-0.384663 9.19141 0.158306 11.0547 0.869244 12.082C1.2169 12.5898 1.63096 13.1484 2.17784 13.1289C2.69737 13.1094 2.90049 12.793 3.52549 12.793C4.1544 12.793 4.33799 13.1289 4.88487 13.1211C5.45127 13.1094 5.80674 12.6133 6.1544 12.1055C6.54893 11.5273 6.71299 10.9688 6.72081 10.9375C6.70909 10.9258 5.62706 10.5117 5.61534 9.26172C5.60362 8.21484 6.47081 7.71875 6.50987 7.6875C6.02159 6.96094 5.25987 6.88281 4.99424 6.86328ZM8.91612 5.44922V13.0625H10.0997V10.4609H11.7364C13.2325 10.4609 14.2794 9.43359 14.2794 7.94922C14.2794 6.46484 13.2481 5.44922 11.7755 5.44922H8.91612ZM10.0997 6.44531H11.463C12.4903 6.44531 13.0763 6.99219 13.0763 7.95313C13.0763 8.91406 12.4903 9.46875 11.4591 9.46875H10.0997V6.44531ZM16.4357 13.1211C17.1778 13.1211 17.8653 12.7461 18.1778 12.1484H18.2013V13.0625H19.295V9.27344C19.295 8.17578 18.4161 7.46484 17.0646 7.46484C15.8106 7.46484 14.881 8.18359 14.8458 9.16797H15.9122C16.0021 8.69922 16.4356 8.39063 17.0294 8.39063C17.7521 8.39063 18.1583 8.72656 18.1583 9.34766V9.76953L16.6817 9.85937C15.3107 9.94141 14.5685 10.5039 14.5685 11.4805C14.5724 12.4648 15.338 13.1211 16.4357 13.1211ZM16.756 12.2187C16.1271 12.2187 15.7247 11.9141 15.7247 11.4531C15.7247 10.9727 16.1114 10.6953 16.8497 10.6523L18.1622 10.5703V11C18.1622 11.7109 17.5567 12.2187 16.756 12.2187ZM20.7599 15.1328C21.9122 15.1328 22.4552 14.6914 22.9278 13.3594L25.0021 7.53906H23.7989L22.4083 12.0352H22.3849L20.9942 7.53906H19.7599L21.7599 13.082L21.6505 13.418C21.4708 13.9883 21.1778 14.2109 20.6544 14.2109C20.5606 14.2109 20.381 14.1992 20.3067 14.1914V15.1055C20.3771 15.1211 20.67 15.1328 20.7599 15.1328Z" fill="var(--fill-0, white)"/>
</g>
</svg>
