<svg preserveAspectRatio="none" width="100%" height="100%" overflow="visible" style="display: block;" viewBox="0 0 25 20" fill="none" xmlns="http://www.w3.org/2000/svg">
<g id="Img">
<path id="Vector" d="M4.12969 8.39844V10.0098H6.36016C6.31517 10.2666 6.21886 10.5118 6.07698 10.7306C5.93509 10.9494 5.75055 11.1373 5.53437 11.2832C5.16172 11.5391 4.68594 11.6848 4.12813 11.6848C3.05 11.6848 2.13867 10.9461 1.81172 9.95742C1.64063 9.43728 1.64063 8.87601 1.81172 8.35586C2.13867 7.36133 3.05 6.62266 4.12813 6.62266C4.42036 6.61721 4.71076 6.66994 4.98243 6.77778C5.25409 6.88561 5.5016 7.0464 5.71055 7.25078L6.89336 6.05469C6.14841 5.3469 5.15721 4.95687 4.12969 4.96719C3.36102 4.97014 2.60849 5.1879 1.95704 5.59591C1.30559 6.00391 0.781163 6.5859 0.442969 7.27617C0.151655 7.85953 6.38872e-06 8.50264 6.38872e-06 9.15469C6.38872e-06 9.80674 0.151655 10.4498 0.442969 11.0332V11.0391C0.781256 11.7289 1.30582 12.3104 1.95734 12.7177C2.60886 13.125 3.36134 13.3418 4.12969 13.3438C5.2418 13.3438 6.18242 12.9715 6.86406 12.3316C7.64531 11.6047 8.09102 10.5289 8.09102 9.24922C8.09147 8.96424 8.06861 8.67969 8.02266 8.39844H4.12969ZM19.341 8.24219C18.9453 7.87578 18.4063 7.68984 17.7242 7.68984C16.8469 7.68984 16.1875 8.01563 15.7516 8.66094L16.566 9.17891C16.8642 8.7362 17.2712 8.51484 17.7871 8.51484C18.1156 8.51564 18.4321 8.63795 18.6758 8.8582C18.7945 8.96131 18.8898 9.0887 18.9551 9.23176C19.0204 9.37483 19.0542 9.53024 19.0543 9.6875V9.90273C18.6988 9.70469 18.2516 9.6 17.7012 9.6C17.059 9.6 16.543 9.75156 16.1586 10.0598C15.7742 10.368 15.5797 10.775 15.5797 11.2926C15.5737 11.5239 15.6195 11.7536 15.7137 11.965C15.8079 12.1763 15.9482 12.3639 16.1242 12.5141C16.4855 12.8398 16.9445 13.0027 17.4832 13.0027C18.1195 13.0027 18.6242 12.7176 19.0066 12.1477H19.0457V12.8398H19.9289V9.76563C19.9316 9.11914 19.7367 8.60703 19.341 8.24219ZM18.5898 11.7305C18.4544 11.8683 18.2929 11.9778 18.1147 12.0527C17.9365 12.1275 17.7452 12.1662 17.552 12.1664C17.2922 12.1707 17.039 12.0844 16.8359 11.9223C16.7412 11.8513 16.6644 11.7591 16.6117 11.653C16.559 11.547 16.5318 11.4301 16.5324 11.3117C16.5324 11.0383 16.6582 10.8113 16.9051 10.6313C17.152 10.4512 17.4727 10.3578 17.8453 10.3578C18.3594 10.3516 18.7617 10.4688 19.0484 10.7008C19.0484 11.0965 18.8938 11.4395 18.5898 11.7305ZM14.9316 6.18359C14.7244 5.97637 14.4773 5.81315 14.2054 5.70373C13.9335 5.59432 13.6423 5.54097 13.3492 5.54688H10.9012V12.8414H11.8242V9.88672H13.3477C13.9727 9.88672 14.5 9.67734 14.9301 9.26445C14.9645 9.22969 14.9988 9.19453 15.0336 9.15977C15.41 8.74898 15.6102 8.2069 15.5911 7.65006C15.5721 7.09323 15.3353 6.56611 14.9316 6.18203V6.18359ZM14.284 8.61445C14.1676 8.73866 14.0261 8.83664 13.8689 8.90184C13.7117 8.96704 13.5424 8.99798 13.3723 8.99258H11.8242V6.44531H13.3723C13.7026 6.44412 14.02 6.57374 14.2551 6.80586C14.4942 7.04401 14.631 7.36605 14.6364 7.70351C14.6418 8.04096 14.5154 8.36721 14.284 8.61289V8.61445ZM23.9965 7.85156L22.5691 11.4336H22.5516L21.0898 7.85156H20.0863L22.1094 12.5215L20.9629 15.034H21.9141L25 7.85156H23.9965Z" fill="var(--fill-0, white)"/>
</g>
</svg>
