<svg preserveAspectRatio="none" width="100%" height="100%" overflow="visible" style="display: block;" viewBox="0 0 15 20" fill="none" xmlns="http://www.w3.org/2000/svg">
<g id="Img">
<path id="Vector" d="M4.35156 11.5586C4.21484 12.3086 3.67188 15.8047 3.51172 16.793C3.5 16.8633 3.47266 16.8906 3.39453 16.8906H0.480469C0.183594 16.8906 -0.03125 16.6328 0.0078125 16.3477L2.29687 1.82031C2.35547 1.44531 2.69141 1.16016 3.07813 1.16016C9.02734 1.16016 9.52734 1.01562 11.0469 1.60547C13.3945 2.51562 13.6094 4.71094 12.7656 7.08594C11.9258 9.53125 9.93359 10.582 7.29297 10.6133C5.59766 10.6406 4.57813 10.3398 4.35156 11.5586ZM13.9492 5.9375C13.8789 5.88672 13.8516 5.86719 13.832 5.98828C13.7539 6.43359 13.6328 6.86719 13.4883 7.30078C11.9297 11.7461 7.60937 11.3594 5.5 11.3594C5.26172 11.3594 5.10547 11.4883 5.07422 11.7266C4.19141 17.2109 4.01563 18.3555 4.01563 18.3555C3.97656 18.6328 4.15234 18.8594 4.42969 18.8594H6.91016C7.24609 18.8594 7.52344 18.6133 7.58984 18.2773C7.61719 18.0664 7.54687 18.5156 8.15234 14.7109C8.33203 13.8516 8.71094 13.9414 9.29687 13.9414C12.0703 13.9414 14.2344 12.8164 14.8789 9.55469C15.1328 8.19531 15.0586 6.76562 13.9492 5.9375Z" fill="var(--fill-0, white)"/>
</g>
</svg>
