<svg preserveAspectRatio="none" width="100%" height="100%" overflow="visible" style="display: block;" viewBox="0 0 25 20" fill="none" xmlns="http://www.w3.org/2000/svg">
<g id="Img">
<path id="Vector" d="M6.44531 5.65234L4.75391 6.01172L4.74609 11.5742C4.74609 12.6016 5.51953 13.2656 6.54688 13.2656C7.11719 13.2656 7.53516 13.1602 7.76562 13.0352V11.7148C7.54297 11.8047 6.44922 12.125 6.44922 11.1016V8.63281H7.76562V7.15625H6.44922L6.44531 5.65234ZM9.92578 7.66797L9.82031 7.15625H8.32031V13.1406H10.0508V9.11328C10.4609 8.57422 11.1523 8.67969 11.375 8.75V7.15625C11.1406 7.07422 10.332 6.92188 9.92578 7.66797ZM13.5312 4.84375L11.7891 5.21484V6.62891L13.5312 6.25781V4.84375ZM1.75391 8.91797C1.75391 8.64844 1.98047 8.54297 2.34375 8.53906C2.87109 8.53906 3.54297 8.69922 4.07031 8.98438V7.35156C3.49609 7.125 2.92187 7.03516 2.34766 7.03516C0.941406 7.03516 0.00390625 7.76953 0.00390625 8.99609C0.00390625 10.918 2.64062 10.6055 2.64062 11.4336C2.64062 11.7539 2.36328 11.8594 1.97656 11.8594C1.40234 11.8594 0.660156 11.6211 0.078125 11.3047V12.8672C0.722656 13.1445 1.375 13.2617 1.97266 13.2617C3.41406 13.2617 4.40625 12.6445 4.40625 11.3945C4.40625 9.32813 1.75391 9.69922 1.75391 8.91797ZM25 10.2188C25 8.44141 24.1406 7.03906 22.4922 7.03906C20.8438 7.03906 19.8398 8.44141 19.8398 10.207C19.8398 12.2969 21.0234 13.2617 22.7109 13.2617C23.5391 13.2617 24.1602 13.0742 24.6328 12.8125V11.5078C24.1602 11.7461 23.6172 11.8906 22.9297 11.8906C22.2539 11.8906 21.6602 11.6523 21.582 10.8398H24.9766C24.9844 10.75 25 10.3867 25 10.2188ZM21.5664 9.5625C21.5664 8.78125 22.0469 8.45312 22.4805 8.45312C22.9063 8.45312 23.3594 8.78125 23.3594 9.5625H21.5664ZM17.1563 7.03906C16.4766 7.03906 16.0391 7.35938 15.7969 7.58203L15.707 7.15234H14.1797V15.1523L15.9141 14.7852L15.918 12.8242C16.168 13.0078 16.5391 13.2617 17.1445 13.2617C18.3867 13.2617 19.5195 12.3555 19.5195 10.1523C19.5234 8.13672 18.375 7.03906 17.1563 7.03906ZM16.7422 11.8242C16.3359 11.8242 16.0938 11.6758 15.9258 11.4961L15.9141 8.91797C16.0937 8.71875 16.3438 8.57422 16.7422 8.57422C17.375 8.57422 17.8125 9.28516 17.8125 10.1914C17.8164 11.125 17.3867 11.8242 16.7422 11.8242ZM11.793 13.1406H13.5352V7.15625H11.793V13.1406Z" fill="var(--fill-0, white)"/>
</g>
</svg>
